# xmcd
#
# Track frame offsets: 
#        150
#        13862
#        36830
#        61050
#        87012
#        123432
#        139740
#        170142
#        198440
#        222762
#
# Disc length: 3313 seconds
#
# Revision: 3
# Processed by: cddbd v1.5.2PL0 Copyright (c) Steve Scherf et al.
# Submitted via: ExactAudioCopy v0.95b3
#
DISCID=890cef0a
DTITLE=Everon - Flood
DYEAR=1995
DGENRE=Progressive Rock
TTITLE0=Under Skies...
TTITLE1=Of Blue
TTITLE2=Black River
TTITLE3=Very Own Design
TTITLE4=In All That Time
TTITLE5=Lame Excuses
TTITLE6=In Silent Grace
TTITLE7=Cavemen
TTITLE8=Simple Truth
TTITLE9=Flood
EXTD=YEAR: 1995
EXTT0=
EXTT1=
EXTT2=
EXTT3=
EXTT4=
EXTT5=
EXTT6=
EXTT7=
EXTT8=
EXTT9=
PLAYORDER=
